<?xml version="1.0" encoding="iso-8859-1"?>
<!-- Generator: Adobe Illustrator 19.0.0, SVG Export Plug-In . SVG Version: 6.00 Build 0)  -->
<svg version="1.1" id="Layer_1" xmlns="http://www.w3.org/2000/svg" xmlns:xlink="http://www.w3.org/1999/xlink" x="0px" y="0px"
	 viewBox="0 0 512 512" style="enable-background:new 0 0 512 512;" xml:space="preserve">
<g>
	<g>
		<path d="M170.667,320.007V320c0-11.782-9.551-21.333-21.333-21.333C137.552,298.667,128,308.218,128,320v-56.89
			c0-11.782-9.551-21.333-21.333-21.333s-21.333,9.551-21.333,21.333v78.229c-0.001,11.783,9.551,21.334,21.333,21.334H128v42.66
			c0,11.782,9.551,21.333,21.333,21.333s21.333-9.551,21.333-21.333v-42.66c11.782,0,21.333-9.551,21.333-21.333
			C192,329.558,182.449,320.007,170.667,320.007z"/>
	</g>
</g>
<g>
	<g>
		<path d="M426.667,320.007V320c0-11.782-9.551-21.333-21.333-21.333C393.552,298.667,384,308.218,384,320v-56.89
			c0-11.782-9.551-21.333-21.333-21.333c-11.782,0-21.333,9.551-21.333,21.333v78.229c-0.001,11.783,9.551,21.334,21.333,21.334H384
			v42.66c0,11.782,9.551,21.333,21.333,21.333c11.782,0,21.333-9.551,21.333-21.333v-42.66c11.782,0,21.333-9.551,21.333-21.333
			C448,329.558,438.449,320.007,426.667,320.007z"/>
	</g>
</g>
<g>
	<g>
		<path d="M266.667,256c-29.446,0-53.333,23.887-53.333,53.333v64c-0.001,29.446,23.887,53.334,53.333,53.334
			S320,402.78,320,373.334v-64C320,279.887,296.114,256,266.667,256z M277.334,373.333c0,5.882-4.785,10.667-10.667,10.667
			c-5.882,0-10.667-4.785-10.667-10.667v-64c0-5.882,4.785-10.667,10.667-10.667c5.882,0,10.667,4.785,10.667,10.667V373.333z"/>
	</g>
</g>
<g>
	<g>
		<path d="M490.667,0H21.333C9.552,0,0,9.551,0,21.333V192v298.667C0,502.449,9.552,512,21.333,512h469.333
			c11.782,0,21.333-9.551,21.333-21.333V192V21.333C512,9.551,502.45,0,490.667,0z M469.334,469.333L469.334,469.333H42.667v-256
			h426.667V469.333z M469.334,170.667H42.667v-128h426.667V170.667z"/>
	</g>
</g>
<g>
	<g>
		<path d="M435.505,106.666l6.248-6.248c8.331-8.331,8.331-21.838,0-30.17c-8.331-8.331-21.839-8.331-30.17,0l-6.248,6.248
			l-6.248-6.248c-8.331-8.331-21.839-8.331-30.17,0c-8.331,8.331-8.331,21.839,0,30.17l6.248,6.248l-6.248,6.248
			c-8.331,8.331-8.331,21.839,0,30.17s21.839,8.331,30.17,0l6.248-6.248l6.248,6.248c8.331,8.331,21.839,8.331,30.17,0
			s8.331-21.839,0-30.17L435.505,106.666z"/>
	</g>
</g>
<g>
	<g>
		<path d="M256,85.333H85.333C73.552,85.333,64,94.885,64,106.667S73.552,128,85.333,128H256c11.782,0,21.333-9.551,21.333-21.333
			S267.783,85.333,256,85.333z"/>
	</g>
</g>
<g>
</g>
<g>
</g>
<g>
</g>
<g>
</g>
<g>
</g>
<g>
</g>
<g>
</g>
<g>
</g>
<g>
</g>
<g>
</g>
<g>
</g>
<g>
</g>
<g>
</g>
<g>
</g>
<g>
</g>
</svg>
