<?xml version="1.0" encoding="iso-8859-1"?>
<!-- Generator: Adobe Illustrator 16.0.0, SVG Export Plug-In . SVG Version: 6.00 Build 0)  -->
<!DOCTYPE svg PUBLIC "-//W3C//DTD SVG 1.1//EN" "http://www.w3.org/Graphics/SVG/1.1/DTD/svg11.dtd">
<svg version="1.1" id="Capa_1" xmlns="http://www.w3.org/2000/svg" xmlns:xlink="http://www.w3.org/1999/xlink" x="0px" y="0px"
	 width="232.335px" height="232.334px" viewBox="0 0 232.335 232.334" style="enable-background:new 0 0 232.335 232.334;"
	 xml:space="preserve">
<g>
	<g>
		<path style="fill:#1D1D1B;" d="M116.167,0C52.006,0,0,52.011,0,116.167c0,64.157,52.011,116.168,116.167,116.168
			c64.155,0,116.167-52.011,116.167-116.168C232.334,52.011,180.322,0,116.167,0z M116.167,222.344
			c-58.555,0-106.185-47.628-106.185-106.178c0-58.554,47.63-106.184,106.185-106.184c58.549,0,106.177,47.63,106.177,106.184
			C222.344,174.716,174.716,222.344,116.167,222.344L116.167,222.344z"/>
		<path style="fill:#1D1D1B;" d="M116.167,15.363c-55.587,0-100.81,45.223-100.81,100.809c0,55.589,45.223,100.807,100.81,100.807
			c55.583,0,100.801-45.218,100.801-100.807C216.968,60.586,171.75,15.363,116.167,15.363z M83.406,140.983
			c-3.61,4.426-9.006,6.636-16.197,6.636c-5.791,0-10.541-1.554-14.261-4.662c-2.485-2.072-4.23-4.724-5.242-7.952
			c-0.887-2.835,1.441-5.276,4.408-5.276h1.178c2.966,0,5.577,1.514,6.305,3.22c0.472,1.111,1.07,2.047,1.794,2.808
			c1.339,1.412,3.294,2.126,5.864,2.126c2.963,0,5.221-1.046,6.769-3.129c1.549-2.09,2.328-4.713,2.328-7.879
			c0-3.103-0.727-5.727-2.179-7.874c-1.457-2.14-3.714-3.213-6.787-3.213c-1.459,0-2.711,0.182-3.77,0.546
			c-0.947,0.341-1.769,0.824-2.478,1.451c-1.194,1.063-4.155,2.177-7.118,2.034c-2.96-0.141-5.058-2.641-4.688-5.586l2.919-22.976
			c0.378-2.945,3.086-5.331,6.052-5.331h22.75c2.967,0,5.375,2.272,5.375,5.079c0,2.806-2.409,5.081-5.375,5.081H66.94
			c-2.968,0-5.764,2.376-6.247,5.305l-0.44,2.703c-0.478,2.93,0.047,4.688,1.231,4.011c0.876-0.507,1.617-0.873,2.22-1.098
			c1.735-0.646,3.842-0.968,6.331-0.968c5.032,0,9.417,1.696,13.17,5.081c3.745,3.386,5.617,8.314,5.617,14.782
			C88.817,131.541,87.012,136.558,83.406,140.983z M132.306,139.388c-3.129,5.433-8.567,8.152-16.314,8.152
			c-7.759,0-13.197-2.72-16.315-8.152c-3.123-5.433-4.683-13.172-4.683-23.222c0-10.052,1.56-17.803,4.683-23.265
			c3.124-5.462,8.557-8.187,16.315-8.187c7.747,0,13.186,2.729,16.314,8.187c3.119,5.462,4.683,13.212,4.683,23.265
			C136.988,126.216,135.425,133.96,132.306,139.388z M180.134,139.388c-3.124,5.433-8.562,8.152-16.31,8.152
			c-7.759,0-13.197-2.72-16.316-8.152c-3.129-5.433-4.682-13.172-4.682-23.222c0-10.052,1.553-17.803,4.682-23.265
			c3.119-5.462,8.558-8.187,16.316-8.187c7.747,0,13.186,2.729,16.31,8.187c3.123,5.462,4.682,13.212,4.682,23.265
			C184.815,126.216,183.257,133.96,180.134,139.388z"/>
		<path style="fill:#1D1D1B;" d="M163.824,94.584c-3.56,0-5.912,1.764-7.056,5.292c-1.155,3.524-1.722,8.96-1.722,16.291
			c0,6.996,0.566,12.351,1.722,16.062c1.144,3.711,3.496,5.563,7.056,5.563c3.548,0,5.88-1.853,6.991-5.563
			c1.104-3.711,1.659-9.065,1.659-16.062c0-7.331-0.556-12.766-1.659-16.294C169.704,96.348,167.372,94.584,163.824,94.584z"/>
		<path style="fill:#1D1D1B;" d="M115.991,94.584c-3.56,0-5.909,1.764-7.053,5.292c-1.153,3.524-1.722,8.96-1.722,16.291
			c0,6.996,0.569,12.351,1.722,16.062c1.144,3.711,3.499,5.563,7.053,5.563c3.548,0,5.885-1.853,6.992-5.563
			c1.108-3.711,1.659-9.065,1.659-16.062c0-7.331-0.551-12.766-1.659-16.294C121.871,96.348,119.539,94.584,115.991,94.584z"/>
	</g>
</g>
<g>
</g>
<g>
</g>
<g>
</g>
<g>
</g>
<g>
</g>
<g>
</g>
<g>
</g>
<g>
</g>
<g>
</g>
<g>
</g>
<g>
</g>
<g>
</g>
<g>
</g>
<g>
</g>
<g>
</g>
</svg>
