<?xml version="1.0" encoding="iso-8859-1"?>
<!-- Generator: Adobe Illustrator 17.1.0, SVG Export Plug-In . SVG Version: 6.00 Build 0)  -->
<!DOCTYPE svg PUBLIC "-//W3C//DTD SVG 1.1//EN" "http://www.w3.org/Graphics/SVG/1.1/DTD/svg11.dtd">
<svg version="1.1" id="Capa_1" xmlns="http://www.w3.org/2000/svg" xmlns:xlink="http://www.w3.org/1999/xlink" x="0px" y="0px"
	 viewBox="0 0 488.377 488.377" style="enable-background:new 0 0 488.377 488.377;" xml:space="preserve">
<g>
	<path d="M485.303,123.284l-37.83-37.83l0.354-0.354c9.163-9.162,9.163-24.071,0-33.234l-11.314-11.313
		c-4.438-4.438-10.339-6.883-16.617-6.883s-12.179,2.444-16.617,6.883l-0.354,0.354L365.095,3.075
		C363.112,1.092,360.475,0,357.671,0c-2.805,0-5.442,1.093-7.424,3.076l-63.639,63.638c-1.984,1.983-3.077,4.621-3.077,7.426
		c0,2.806,1.093,5.442,3.076,7.425l37.83,37.83L34.692,409.139c-0.617-0.219-1.254-0.359-1.899-0.411
		c-5.324-1.651-11.366-0.383-15.572,3.824L4.534,425.238c-2.922,2.921-4.531,6.813-4.531,10.96s1.609,8.039,4.53,10.96
		l36.687,36.687c3.021,3.021,6.99,4.532,10.959,4.531c3.969,0,7.938-1.51,10.96-4.532l12.687-12.687
		c2.921-2.921,4.53-6.814,4.53-10.96c0-2.209-0.457-4.347-1.326-6.303l289.953-289.953l37.83,37.831c0,0,0,0,0,0.001
		c1.983,1.982,4.62,3.074,7.424,3.074c2.805,0,5.442-1.092,7.424-3.075l63.64-63.64
		C489.397,134.039,489.397,127.378,485.303,123.284z M413.886,51.159c1.605-1.605,3.74-2.49,6.011-2.49s4.405,0.885,6.01,2.49
		l11.314,11.313c3.314,3.314,3.314,8.707,0,12.021l-0.354,0.354l-23.334-23.334L413.886,51.159z M169.151,342.563l-23.335-23.334
		L311.21,153.834l23.335,23.334L169.151,342.563z M63.848,447.866c-2.929,2.928-2.929,7.677-0.001,10.605l1.374,1.375
		c0.09,0.091,0.136,0.209,0.136,0.353c0,0.144-0.046,0.263-0.137,0.354l-12.686,12.686c-0.183,0.182-0.526,0.182-0.708,0
		L15.14,436.552c-0.091-0.091-0.137-0.209-0.137-0.354c0-0.144,0.046-0.262,0.137-0.353l12.687-12.687
		c0.182-0.182,0.525-0.182,0.707,0l1.373,1.373l12.971,12.971c1.464,1.465,3.384,2.197,5.303,2.197s3.839-0.732,5.303-2.197
		c2.929-2.929,2.929-7.678,0-10.606l-7.667-7.667l89.394-89.394l23.335,23.334L63.848,447.866z M345.151,166.563l-23.335-23.334
		l13.227-13.227l23.335,23.334L345.151,166.563z M414.239,187.984L300.395,74.14l57.275-57.275l113.844,113.844L414.239,187.984z"/>
	<path d="M442.877,136.012c1.464,1.464,3.384,2.196,5.303,2.196s3.839-0.732,5.303-2.196c2.929-2.929,2.929-7.678,0-10.606
		l-5.657-5.657c-2.929-2.929-7.678-2.929-10.606,0c-2.929,2.929-2.929,7.678,0,10.606L442.877,136.012z"/>
	<path d="M420.25,113.384c1.464,1.465,3.384,2.197,5.303,2.197s3.839-0.732,5.303-2.197c2.929-2.929,2.929-7.678,0-10.606
		L391.258,63.18c-2.929-2.929-7.678-2.929-10.606,0c-2.929,2.929-2.929,7.678,0,10.606L420.25,113.384z"/>
</g>
<g>
</g>
<g>
</g>
<g>
</g>
<g>
</g>
<g>
</g>
<g>
</g>
<g>
</g>
<g>
</g>
<g>
</g>
<g>
</g>
<g>
</g>
<g>
</g>
<g>
</g>
<g>
</g>
<g>
</g>
</svg>
